<?xml version="1.0" encoding="utf-8"?>
<!-- Generator: Adobe Illustrator 28.0.0, SVG Export Plug-In . SVG Version: 6.00 Build 0)  -->
<svg version="1.1" id="Livello_1" xmlns="http://www.w3.org/2000/svg" xmlns:xlink="http://www.w3.org/1999/xlink" x="0px" y="0px"
	 viewBox="0 0 1200 817" style="enable-background:new 0 0 1200 817;" xml:space="preserve">
<style type="text/css">
	.st0{fill:#111440;}
	.st1{fill:#FFFFFF;}
	.st2{fill:#A480F2;}
	.st3{fill:#6A36D9;}
	.st4{font-family:'MyriadPro-Regular';}
	.st5{font-size:80px;}
</style>
<g>
	<g>
		<g>
			<path class="st0" d="M465.5,278.3c-0.8-2.6-1.6-5.1-2.2-7.8c-2.3-10.3-3-20.6-1.9-31c0-0.2-0.1-0.3-0.3-0.3c-0.1,0-0.1,0-0.2,0
				l-14,6.7c-0.1,0.1-0.3,0-0.4-0.1c0,0,0-0.1,0-0.1c0.1-4.1,0.5-8.3,1.3-12.6c4.5-24.9,18-46.8,37.1-63.9c0.6-0.5,0.9-1.2,0.9-2
				c-0.3-9.4-0.1-19.4,0.6-30c0.5-8.2,1.6-15.7,3.1-22.6c1.1-4.9,2.9-9.8,7-13.2c1.2-1,2.5-1.4,4-1.2c8.4,1.1,16.3,6,23.3,11.1
				c9.3,6.8,18.2,14.3,26.7,22.6c0.2,0.2,0.5,0.3,0.8,0.2c32.6-8.3,65.2-8.3,97.7,0c0.2,0.1,0.5,0,0.7-0.2c8.2-8,16.9-15.4,26-22.1
				c7-5.2,14.9-10.3,23.7-11.6c4.5-0.7,8.1,5,9.4,8.5c1.9,5.1,3.1,10.5,3.8,16.2c1.7,14.2,2.2,28.2,1.7,42c0,1.1,0.3,1.8,1.1,2.4
				c22.1,19.8,36.8,46.4,38.3,76.2c0,0.3-0.2,0.5-0.4,0.5c-0.1,0-0.1,0-0.2,0l-13.8-6.6c-0.4-0.2-0.5-0.1-0.5,0.3
				c1.3,13.4-0.1,26.4-4.2,39c-0.1,0.2,0,0.4,0.2,0.5c0,0,0.1,0,0.1,0c3-0.1,5.8,0.2,8.4,1.1c4.3,1.4,8.8,2.7,12.8,4.9
				c12.3,6.8,18.7,17.5,19.5,32.1c0,0.5,0.2,1,0.6,1.3c2.5,2.2,4.5,4.7,6.1,7.7c0.2,0.4,0.6,0.5,1,0.2l6.7-5c0.3-0.2,0.8-0.2,1,0.1
				l51.5,60.5c0.3,0.3,0.3,0.6,0.3,1c-2.5,14.2-7.1,29.2-14.6,41.1c-2.4,3.8-4.2,6.3-5.3,7.4c-1.8,1.8-3.8,3.6-5.9,5.5
				c-2.8,2.5-6.7,3.7-10.2,4.9c-1.9,0.7-4,1.1-6.4,1.4c-22.9,2.7-47.8,0.3-70-3.8c-15.7-2.9-31.7-6-48.2-9.2
				c-7.8-1.5-15.9-2.6-24.5-3.3c-10.6-0.8-21.1-0.3-30.7,4.7c-0.8,0.4-1.7,0.6-2.6,0.6c-16.3,0-32.5,0-48.8,0
				c-1.1,0-2.2-0.1-3.2-0.7c-9-5-19.9-5.5-30.2-4.7c-9.2,0.7-18.8,2-28.6,4c-33.9,6.7-66.9,14.4-100.9,13.4
				c-7.7-0.2-13.8-0.9-18.3-2c-4.1-1-8.9-3-12.4-5.9c-2.5-2.1-4.5-4.1-6-6c-2.9-3.7-5.7-8-7.8-12.3c-5.3-10.9-9-22.7-11.2-35.2
				c-0.1-0.3,0-0.7,0.3-1l51.5-60.5c0.3-0.3,0.7-0.3,1-0.1l6.8,5c0.4,0.3,0.7,0.2,0.9-0.2c1.6-3,3.6-5.6,6.1-7.7
				c0.4-0.3,0.6-0.8,0.7-1.3c0.8-17,10-29.2,25.8-34.9c4.9-1.8,9.6-3.3,14.9-3.2C465.5,279,465.7,278.7,465.5,278.3z M504.7,116.4
				c-2,5.2-3.2,9.7-3.4,13.3c-0.1,1.7-0.3,3.1-0.5,4.4c-0.3,1.9-0.5,3.3-0.5,4.3c0,6.1,0,12.2,0,18.2c0,2.9,0.2,5.4,0.6,7.6
				c0.5,2.5,0.9,5,1.4,7.5c0.3,1.9,0,3.2-1.1,4c-16.4,13.1-28,29.6-34.8,49.4c-0.5,1.3-0.8,3.1-1,5.3c-0.2,0.5-0.2,0.9-0.1,1.1
				c0.1,0.2,0.3,0.3,0.5,0.3c0,0,0,0,0.1,0l18.8-8.4c0.3-0.1,0.5,0,0.7,0.2c0,0.1,0.1,0.2,0,0.2c0,0.5-0.2,0.9-0.6,1.5
				c-0.8,1.5-1.5,3.1-2,4.8c-1.3,4.5-2.7,9.4-2.4,13.9c0.1,2,0,3.9-0.5,5.8c-0.9,3.7,0.6,7,0.6,10.7c0,1.1,0,2.1,0.2,2.9
				c1.2,8,3.7,15.5,7.3,22.7c0.3,0.5,0.6,0.9,0.8,1.4c0.3,0.6,0.7,1.1,1.2,1.6c6.6,6.1,12,12.9,16,20.5c2.4,4.4,6.1,7.5,9.9,10.4
				c1.1,0.9,2.6,1.5,4.4,1.7c2.3,0.3,4.3,0.4,6.1,0.4c10.4,0.3,20-1,28.8-4c0.2-0.1,0.4-0.3,0.3-0.6c0-0.1-0.1-0.2-0.2-0.2
				c-5.7-3-10.7-7.1-15.1-12.1c-0.4-0.5-1.1-0.7-1.7-0.6c-6.1,0.7-12.4,2-18.9,3.7c-1.6,0.4-1.8,0.1-0.4-0.9
				c5.1-3.9,10.9-5.7,17.5-5.3c0.9,0,1.1-0.3,0.6-1l-0.9-1.5c-0.4-0.7-1.2-1.1-1.9-1L513,300l-4.8,0.4c-0.7,0.1-0.8-0.1-0.2-0.5
				c0.7-0.5,1.7-1,2.8-1.4c7.7-2.8,15.6-3.7,23.6-2.8c0.1,0,0.2,0,0.2-0.2l0.7-4c0-0.1-0.1-0.3-0.2-0.3c0,0,0,0,0,0l-19.3-1.1
				c-3.1-0.2-3.2-0.7-0.2-1.5c5-1.4,10-1.7,15.3-1c8.6,1.1,16.5,3.1,23.7,5.9c1.5,0.6,3.1,1.6,5,3.1c-0.9,0-1.4-0.1-1.6-0.4
				c-2.6-1.4-5.6-2.3-8.7-2.9c-4-0.7-7.7-1.3-11.2-1.9c-0.7-0.1-0.8,0.1-0.5,0.7l1.7,3c0.5,0.8,1.3,1.3,2.3,1.4
				c3.7,0.3,7.4,1.2,11.2,2.8c0.6,0.2,0.5,0.4-0.1,0.4l-0.5,0l-9-1c-0.6-0.1-0.8,0.2-0.4,0.7c1.5,2.3,3.5,3.5,5.9,3.7
				c2,0.1,4.3,0.8,6,1.6c2.4,1,2.3,1.3-0.2,0.8c-1.2-0.2-2.5-0.5-3.7-0.7c-2.2-0.3-2.3,0.1-0.4,1.2c4.8,2.9,10.1,4.9,15.9,5.9
				c4.5,0.8,8.5-0.8,12.9-1c0.7,0,0.9-0.3,0.4-0.9c-0.4-0.4-0.7-0.8-1.1-1.1c-3.6-2.9-3.2-8.2-0.7-11.8c1.3-1.8,3.7-2.6,5.9-2.9
				c10-1.4,20.3-1.5,30.7-0.3c3.6,0.4,7.4,0.8,9.2,4.6c2.3,5,0.8,8.1-2.7,11.4c-0.5,0.5-0.4,0.8,0.3,0.8c4.4,0.4,8.5,1.8,13,1
				c5.8-1,11.2-3,16-6.1c0.2-0.1,0.3-0.2,0.4-0.4c0.1-0.2,0-0.4-0.2-0.5c-0.1,0-0.2-0.1-0.3,0l-5.9,1c-0.1,0-0.2,0-0.3-0.2l-0.1-0.3
				c0-0.1,0-0.2,0.1-0.2c2.8-0.9,5.7-1.6,8.8-2.3c1.9-0.4,3.4-1.6,4.6-3.6c0.2-0.4,0.1-0.5-0.3-0.5l-10.5,0.8
				c1.9-0.8,3.7-1.3,5.2-1.7c2.1-0.4,4.2-1.1,6.4-1.2c1.2-0.1,2.3-0.7,2.9-1.7l1.4-2.3c0.7-1.1,0.4-1.5-0.9-1.3
				c-6.5,1.2-13.1,2.8-19.7,4.8c-0.2,0-0.2,0-0.2-0.2c0-0.1,0-0.2,0.1-0.2c0.1-0.1,0.2-0.2,0.3-0.2c13.3-6.7,29.9-10.5,44.4-6.2
				c0.2,0.1,0.3,0.3,0.3,0.5c0,0.1-0.1,0.2-0.2,0.2c-0.3,0.2-0.5,0.2-0.8,0.3c-6,0.4-12.7,0.6-20.1,0.6c-0.6,0-0.8,0.3-0.7,0.9
				l0.5,3.3c0.1,0.5,0.4,0.8,1,0.7c8.2-1.1,16.2,0,24.3,3.4c2.5,1,2.4,1.4-0.3,1.2l-3.2-0.3l-20.8-1.6c-1-0.1-1.8,0.3-2.4,1.1
				l-0.7,1c-0.6,0.8-0.4,1.2,0.6,1.2c6.4,0,13.2,2.1,17.8,6.1c0.2,0.2,0.2,0.4,0,0.6c-0.1,0.1-0.3,0.2-0.4,0.1
				c-5.4-1.5-10.6-2.7-15.6-3.8c-1.5-0.3-3-0.4-4.6-0.3c-0.4,0-0.7,0.2-0.9,0.5c-3.7,4.6-8.7,8.7-15,12.3c-0.6,0.4-0.6,0.6,0.1,0.9
				c9.1,3.2,18.9,4.5,29.4,3.9c1.6,0.1,3.3,0,5.2-0.2c1.7-0.2,3.2-0.8,4.6-1.8c2.2-1.6,4.2-3.3,6-5.2c2.3-2.3,3.7-5.4,5.5-8.2
				c4.7-7.3,10.2-14,16.4-20c7.6-16.6,9.7-33.6,6.2-51c-0.6-3.2-1.8-7.4-3.6-12.4c5.5,2.4,10.7,4.7,15.8,6.9
				c0.7,0.3,1.4,0.2,2.1,0.1c0.5,0.6,0.9,1,1.1,1.1c1,0.5,1.3,0.2,1-0.9c-5.9-22.3-19-40.9-36.9-55.2c-0.6-0.5-0.8-1.1-0.7-1.9
				c3.9-19.1,3.5-37.8-1.3-56.1c-0.6-2.1-1.3-3-2.2-2.6c-2.4,1.6-4.6,3.3-6.5,5.1c-10.2,9.9-17.5,21.4-22.1,34.4
				c-0.3,0.8-0.2,1.7,0.4,2.5c2.8,4.1,5.6,8.3,8.4,12.7c0.4,0.6,0.3,0.7-0.2,0.2c-10.5-8.2-21.8-14.2-34-17.8
				c-5.4-1.6-10.8-2.8-16.4-3.7c-0.4-0.1-0.7,0.2-0.8,0.6c0,0,0,0.1,0,0.1l0,55c0,0.1-0.1,0.2-0.2,0.2c0,0-0.1,0-0.1,0l-21.7-16
				c-0.3-0.2-0.6-0.2-0.8,0l-21.4,15.8c-0.2,0.1-0.4,0.1-0.6-0.1c0-0.1-0.1-0.1-0.1-0.2l0-54.6c0-0.4-0.3-0.7-0.7-0.7
				c0,0-0.1,0-0.1,0c-16.6,2.4-31.8,8.4-45.7,17.8c-1.5,1-2.9,2.4-4.4,3.4c-0.8,0.6-0.9,0.4-0.4-0.4l8.9-13.4
				c0.1-0.2,0.1-0.4,0.1-0.6c-5.5-16.1-15-29.6-28.6-40.5c-0.7-0.5-1.3-0.5-1.8,0.2C504.8,115.1,504.7,115.6,504.7,116.4z
				 M425.3,339.7c0.7,4,2.6,7.1,6,9.4c3.9,2.9,8.7,2.4,13.1,2c1.1-0.1,1.9-1.1,1.8-2.2c0-0.2,0-0.3-0.1-0.5
				c-0.5-1.3-0.6-2.6-0.5-3.6c0.3-2.8,1.1-3,2.4-0.4c2.1,4.1,4.7,6.3,9,7.6c2.1,0.6,3.8,0.9,5.1,0.8c6.9-0.2,11.8-3.3,14.6-9.3
				c1.1-2.4,1-5.4,1-8c0.1-2.6,0.9-2.9,2.6-0.9c2.8,3.2,7.2,5.9,11.5,4.4c0.7-0.2,1.3-0.6,1.9-1c0.6-0.5,1.1-0.9,1.7-1.3
				c2.1-1.6,3.5-3.9,4.4-6.8c1.4-4.1,1.1-8.1-0.9-12.1c-3.6-7.3-8.5-13.5-14.7-18.8c-4.9-4.2-10.4-6.8-16.4-7.9
				c-2.1-0.5-3.8-1.2-5.9-0.9c-18.6,2.6-26.7,16.2-29.8,33.9c-0.4,2.4-1.7,3.2-3.2,4.8C425.6,331.9,424.4,335.5,425.3,339.7z
				 M713.2,337.8c3-1,5.6-3.1,7.8-6.4c0.8,2.1,1.2,4.2,1.2,6.5c0,2,0.2,3.5,0.7,4.6c3,7.3,10.4,11.7,18.3,9.9c2.4-0.5,4.4-1.2,5.9-2
				c2.2-1.2,3.6-3.2,4.1-6.1c0-0.3,0.2-0.8,0.5-1.5c0.9-0.9,1.6-1,2-0.2c1.1,1.9,1.2,3.8,0.3,5.8c-0.4,1,0,2.1,1,2.6
				c0.2,0.1,0.5,0.2,0.8,0.2l7.9,0c0.3,0,0.6-0.1,0.9-0.3c0.7-0.5,1.5-0.7,2.3-0.7c0.3,0,0.6-0.1,0.9-0.2c7.7-5.1,9.6-14.4,2.7-21.5
				c-1.3-1.4-2.6-2.3-2.8-4.4c-2.1-15.8-10.6-30.1-27.3-33.2c-3.2-0.6-6.9-0.4-11,0.8c-12.1,3.4-21.6,13.8-27.7,24.9
				c-4.4,7.9-2.3,17.5,5.6,21.9c1,0.5,2,0.8,2.9,0.9C711.9,339.4,712.9,338.9,713.2,337.8z M519,334l-9.9-0.3
				c-0.3,0-0.5,0.1-0.5,0.4c-0.2,1.8-0.9,3.4-2.1,4.8c-5.3,6.1-13.1,8.6-21.1,8c-0.4,0-0.7,0.1-0.9,0.5c-4,7.7-10.1,12.4-18.3,14
				c-6.3,1.2-12.7,0-19.2-3.8c-0.4-0.2-0.8-0.2-1.1,0c-13.3,6.8-27.7-3.8-31.5-16.8c-0.3-1-1.1-1.9-2.3-2.8l-0.5-0.6
				c-0.2-0.3-0.6-0.3-0.9,0c0,0-0.1,0-0.1,0.1l-31.6,40.2c-0.2,0.3-0.2,0.6,0.1,0.8c0,0,0,0,0.1,0c12.3,6.7,28.2,7.5,42.1,5.8
				c14.2-1.7,28.3-5,42.4-10.1c11.4-4.1,19.2-6.8,23.5-8.2c28.9-9.3,61-14,90.7-10.4c3.1,0.4,6.2,0.9,9.4,1.7
				c0.4,0.1,0.7-0.1,0.8-0.5l8.5-31.5c0.1-0.4-0.1-0.7-0.4-0.9c-6.2-2.8-12.9-3.6-20.1-2.6c-10.2,1.4-20.2,4.8-29.9,8.3
				C538.6,332.8,529.7,334.1,519,334z M788,338c-1.3,0.9-2.1,1.7-2.3,2.4c-2.4,8.4-7.6,14.3-15.5,17.6c-3.9,1.7-9.1,2.3-13.2,0.7
				c-1.1-0.4-2.1-0.8-3.1-1.2c-0.3-0.1-0.7-0.1-1,0.1c-6.1,3.6-12.2,4.9-18.3,3.9c-8.5-1.3-14.9-6-19.2-14.1
				c-0.2-0.4-0.5-0.5-0.9-0.5c-9.3,0.6-20.5-3.2-23.4-12.7c-0.1-0.3-0.3-0.5-0.7-0.5l-7.3,0.1c-12.2,0.3-23.3-1.5-34.9-5.7
				c-10.2-3.6-21-6.8-31.7-6.7c-4.2,0-8.3,1.2-12.2,2.9c-0.5,0.2-0.8,0.8-0.7,1.4l8.5,31.4c0.1,0.2,0.3,0.4,0.5,0.3
				c3.6-0.9,7.4-1.6,11.4-2c34.7-3.5,69.3,3.1,101.9,15.1c24,8.9,50.5,16.9,76.5,13.8c6.7-0.8,12.9-2.7,18.5-5.8
				c0.3-0.1,0.4-0.5,0.2-0.7c0,0,0-0.1,0-0.1c-10.5-13.4-21.1-26.8-31.7-40.2C789.1,337,788.6,337.2,788,338z M402.7,405.9
				c6.1,1.2,11.9,1.6,17.2,1.3c6.1-0.4,12.4-1.2,18.8-2.5c27.1-5.5,55.3-15.2,81.3-22.6c18.4-5.3,37.6-5.8,57.8-1.7
				c2.7,0.6,5.5,1.4,8.3,2.7c1,0.4,1.2,0.2,0.5-0.7c-12.8-16.3-34.9-16.8-53.8-13.7c-8.3,1.4-16.3,3.1-23.9,5.2
				c-10.9,3.1-25.8,7.5-44.6,13.3c-30,9.3-61.5,12.7-92,6.8c-0.1,0-0.2,0.1-0.3,0.2c0,0,0,0.1,0,0.1c4.4,9.9,9.6,18.6,15.6,26
				c3,3.7,6.4,6.5,10.1,8.5c4.1,2.2,10.1,2.7,14.7,2.7c6.4,0,13.3-0.4,20.7-1.3c28.4-3.6,56.7-9.5,84.7-15.2
				c15.2-3.1,30-4.4,44.4-4.1c8.7,0.2,19.2,1.6,26.7,6.1c1.3,0.8,1.5,0.6,0.5-0.6c-4.7-5.6-12.3-9.3-19.2-11.1
				c-14.2-3.7-30.1-3.1-44.8,0c-27.9,5.8-52.6,11.1-79.4,13.7c-3.6,0.4-7.3,0.6-11.1,0.6c0,0,0,0,0,0l0-0.3c0-0.1,0-0.2,0.2-0.2
				c10-1.8,19.7-4,29.1-6.6c13.3-3.6,26.2-7.2,38.6-10.6c26.7-7.3,53.2-8.8,79.5-4.3c1.5,0.3,2.9,0.6,4.1,1.1
				c1.5,0.6,1.7,0.2,0.6-0.9c-5-5.2-11.4-8.7-19.3-10.5c-12.2-2.8-25.2-2.1-37.7-0.3c-13,1.9-25.6,4.6-37.7,8.1
				c-8.7,2.5-17.1,4.9-25.2,7.1c-13.3,3.7-26.7,5.9-40.4,6.7C417.8,409.4,409.7,408.5,402.7,405.9
				C402.4,405.9,402.4,405.9,402.7,405.9z M796.8,406.1c-4.4,1.6-9,2.5-14,2.7c-20.5,1.1-40.8-3.6-60.4-9.4
				c-21.2-6.2-42.4-11.8-64.2-13.6c-10.5-0.9-20.1-0.1-28.8,2.2c-6.4,1.7-12.1,5.1-17,10c-0.7,0.7-0.6,1,0.4,0.8
				c27-6.1,57.6-4.2,84.2,3.2c22.4,6.3,44.3,12.7,67.2,17.2c0.2,0,0.3,0.2,0.3,0.4l0,0.2c0,0,0,0.1-0.1,0.1
				c-10.5-0.6-21-1.6-31.4-3.3c-16.3-2.5-31.4-5.4-45.1-8.4c-19.5-4.4-38.4-7.4-57.6-2.9c-7.7,1.8-14.2,5.3-19.5,10.4
				c-2.2,2.2-2,2.5,0.7,1c9.2-5.1,22.7-5.9,33.2-5.6c12.4,0.2,24.7,1.6,37,4.1c22.1,4.5,43.1,8.6,63,12.1
				c10.9,1.9,21.8,3.3,32.6,4.2c5,0.4,10.1,0.4,15.1,0c8.5-0.7,14.4-4.6,19.8-11.3c6.1-7.6,11.1-16.1,15.2-25.4
				c0.1-0.2,0-0.4-0.2-0.5c-0.1,0-0.1,0-0.2,0c-25.5,5-52.8,3.5-77.7-3c-24.1-6.3-47.8-14.9-72.2-20.5c-10.1-2.3-20.2-3.4-30.1-3.3
				c-13.5,0.2-25.7,4.6-34.1,15.2c-0.3,0.4-0.3,0.6,0.3,0.4c16.2-5.3,33.1-6.7,50.7-4.2c8.1,1.2,16.2,3,24.2,5.5
				c15.6,4.9,31.5,9.6,47.7,14.2c14.5,4.1,29.9,7.8,45.1,8.6c5.4,0.3,10.7-0.1,15.7-1.3C797.5,405.8,797.5,405.8,796.8,406.1z"/>
			<path class="st0" d="M592.9,236.3c-0.1,1.6,0.1,3.1,0.7,4.6c0.1,0.3,0.3,0.5,0.7,0.5l12.5-0.3c0.4-7.1,2-13.4,5-18.8
				c6.7-12.4,16.9-20.2,30.4-23.4c12.5-3,26.3-0.2,36.7,7.4c11.4,8.4,17.8,19.8,19.1,34.3c0,0.4,0.4,0.8,0.8,0.9l14.6,2.8l-0.8,5.1
				l-14-2.7c-0.3-0.1-0.5,0.1-0.6,0.4c-1.6,14.1-8.2,25.4-19.5,33.8c-11,7.2-22.6,9.7-34.8,7.4c-15.5-2.9-29.6-14.6-34.7-30.4
				c-1.2-3.6-1.9-7.3-2.2-11.1c0-0.6-0.5-1.2-1.2-1.3c-1-0.1-1.8-0.5-2.9-0.5c-2.7,0-5.4,0-8.1,0c-0.6,0-1.1,0.4-1.2,1
				c-0.8,3.5-0.8,7-2,10.5c-4.4,13.6-14.3,24.4-27.7,29.5c-5.8,2.2-12,3.1-18.6,2.7c-8.5-0.5-16.4-3.1-23.7-8
				c-11.4-8.4-17.8-19.6-19.3-33.6c-0.1-0.6-0.4-0.8-1-0.7l-13.8,2.7l-0.7-5l14.3-2.8c0.5-0.1,0.9-0.5,0.9-1
				c2-19,11.7-32.2,29.2-39.7c4.5-1.9,9.8-2.9,16.1-3.1C569.8,197.2,589.5,214,592.9,236.3z M588.4,243.3
				c0-22.4-18.2-40.6-40.6-40.6h0c-22.4,0-40.6,18.2-40.6,40.6s18.2,40.6,40.6,40.6S588.4,265.8,588.4,243.3
				C588.4,243.3,588.4,243.3,588.4,243.3z M693,243.3c0-22.4-18.2-40.6-40.6-40.6c-22.4,0-40.6,18.2-40.6,40.6c0,0,0,0,0,0
				c0,22.4,18.2,40.6,40.6,40.6h0C674.8,284,693,265.8,693,243.3C693,243.3,693,243.3,693,243.3z"/>
			<path class="st0" d="M560.7,269c-12.3,3.8-24.9,1.1-34.2-7.4c-7.8-7.1-11.7-16.3-11.6-27.5c0-1,0.3-2,0.8-2.8
				c11.1-16.5,32.9-20.6,49.1-9.6c9.8,6.7,15,16.6,15.6,29.8c0.1,1.3-0.2,2.4-0.8,3.4C575.3,261.6,567.9,266.8,560.7,269z
				 M533.9,237.4c-0.3-5.4,1-11.1,4.2-15.5c0.1-0.2,0.1-0.4-0.1-0.5c-0.1-0.1-0.2-0.1-0.3,0c-5.8,1.7-10.6,4.6-14.6,8.6
				c-1.8,1.8-3.2,3.4-3,6.2c1.5,28.3,35.2,39.6,53.5,17.9c1.6-1.9,1.5-4.4,1.2-6.6c-0.8-6.6-3.5-12.5-8.2-17.8
				c-0.3-0.4-0.5-0.3-0.5,0.2c0.5,9.7-5.8,21.5-16.1,23.4C540.4,255.2,534.4,246.3,533.9,237.4z M540.8,230.8c1.5,0,2.6-1.4,2.6-3.2
				c0-1.8-1.2-3.2-2.7-3.1c0,0,0,0,0,0c-1.5,0-2.6,1.4-2.6,3.2C538.1,229.4,539.3,230.8,540.8,230.8
				C540.8,230.8,540.8,230.8,540.8,230.8z"/>
			<path class="st0" d="M620.9,255.1c-0.5-0.9-0.8-1.9-0.8-2.9c-0.6-35.5,43.4-50.3,64.3-21.3c0.7,0.9,1.1,2.9,1,4.1
				c-0.5,13.6-6.1,23.7-16.8,30.4c-10.2,6.4-21.2,7.1-33,2.2c-1.6-0.7-3.3-1.6-5-2.8c-1.6-1.1-3.2-2.3-4.8-3.6
				C624,259.7,622.4,257.7,620.9,255.1z M664.8,244.1c-2,5.8-7.9,10.4-14.3,9.3c-10.6-1.8-16.9-13.6-16.6-23.6
				c0-0.4-0.1-0.5-0.4-0.2c-5.1,5.9-7.9,12.7-8.4,20.2c-0.1,1.5,0.3,2.9,1.2,4c9.9,11.9,26.3,15.3,39.6,7
				c7.9-4.9,12.6-12.4,14.1-22.5c0.5-3-0.3-5.5-2.2-7.6c-4.3-4.6-9.5-7.8-15.4-9.4c-0.5-0.1-0.6,0-0.3,0.4
				C666.6,229,667.5,236.4,664.8,244.1z M659.5,230.8c1.5,0,2.6-1.5,2.6-3.2c0-1.7-1.3-3.1-2.7-3.1c0,0,0,0,0,0
				c-1.5,0-2.6,1.5-2.6,3.2C656.8,229.4,658,230.8,659.5,230.8C659.5,230.8,659.5,230.8,659.5,230.8z"/>
		</g>
		<g>
			<path class="st1" d="M741.4,185.5l2.5,4c7.5,12.6,12.8,26.1,15.6,40.5c3,15.2,4.3,30.7,3.8,46.8c0,1.5,0,2.4,1.4,3.4
				c10.5,7.5,16.8,20.4,21,33.1c0.1,0.4,0.6,0.7,1,0.5c0.1,0,0.2-0.1,0.3-0.1l4.4-3.4c0.3-0.3,0.8-0.2,1.1,0.1l55.4,65.1l2,2.1
				c1.2,1.1,1.8,2.1,1.7,3c-0.6,5.8-2.2,13.3-4.9,22.4c-7.4,25.1-22.5,46.8-49.7,49.9c-6.8,0.8-14.1,0.2-21,0.2
				c-28.3,0.1-56.4-8-84.1-13c-17.2-3.1-31-5.6-46.1-4.5c-5.1,0.4-10.1,1.7-14.8,4c-1.5,0.7-3,1.1-4.5,1.1c-18.9,0-36.4,0-52.8,0
				c-1.6,0-3.1-0.3-4.4-1c-5-2.6-10.5-4.1-16.1-4.5c-8.3-0.5-16.5,0-24.7,1.7c-24.6,4.9-48.5,9.3-71.8,13.3c-13,2.2-26,3.3-39.1,3.2
				c-27-0.1-48.9-11.1-59.8-36.6c-4.8-11.2-7.9-23.3-9.2-36.1c-0.1-0.5,0.3-1.3,1-2.2l1.7-1.8l56.5-66.3c0.2-0.2,0.5-0.3,0.8-0.1
				l4.7,3.5c0.3,0.3,0.8,0.2,1.1-0.1c0.1-0.1,0.1-0.2,0.1-0.2c3.9-12.7,10.3-25.9,21.5-33.6c0.7-0.5,1.1-1.3,1.1-2.1
				c-0.2-8.6,0.1-17.6,0.8-26.8c1-12.4,3.3-24.2,6.8-35.5l2.5-7.4c1.1-2.3,2.1-4.3,3-6.2c6.3-14.1,15.3-26.2,26.7-36.3
				c0.6-0.6,1-1.3,1-2.1c-0.1-11.2,0.1-21.4,0.8-30.4c0.5-7,1.6-13.8,3.2-20.4c3.2-13.2,11-24,26.3-19.3c4.7,1.4,9.1,3.4,13.1,6
				c11,7,21.3,15.2,30.9,24.6c0.7,0.7,1.5,1,2.6,0.8c30.6-6.9,61.1-6.9,91.5,0.1c0.7,0.2,1.4,0,1.9-0.5
				c11.6-10.9,24.2-21.7,38.1-28.6c9.2-4.5,20.5-5.7,27.1,3.9c2.3,3.4,4,7,5.1,10.9c2,7.2,3.3,14.8,3.8,22.9
				c0.7,9.8,0.9,19.6,0.7,29.5c0,0.9,0.4,1.8,1,2.4C730.3,171.4,736.2,178.1,741.4,185.5z M465,278.9c-5.4-0.1-10.1,1.4-14.9,3.2
				c-15.8,5.7-25,17.9-25.8,34.9c0,0.5-0.2,1-0.7,1.3c-2.5,2.2-4.5,4.7-6.1,7.7c-0.2,0.4-0.5,0.5-0.9,0.2l-6.8-5
				c-0.3-0.2-0.8-0.2-1,0.1l-51.5,60.5c-0.2,0.3-0.3,0.6-0.3,1c2.2,12.6,6,24.3,11.2,35.2c2.1,4.3,4.9,8.7,7.8,12.3
				c1.5,1.9,3.5,3.9,6,6c3.5,2.9,8.2,4.9,12.4,5.9c4.6,1.1,10.7,1.8,18.3,2c34.1,1,67.1-6.7,100.9-13.4c9.8-1.9,19.3-3.3,28.6-4
				c10.3-0.8,21.2-0.3,30.2,4.7c1,0.6,2.1,0.7,3.2,0.7c16.2,0,32.5,0,48.8,0c0.9,0,1.8-0.2,2.6-0.6c9.6-5,20.1-5.5,30.7-4.7
				c8.6,0.7,16.8,1.7,24.5,3.3c16.5,3.3,32.6,6.3,48.2,9.2c22.2,4.1,47.1,6.5,70,3.8c2.4-0.3,4.5-0.8,6.4-1.4
				c3.4-1.2,7.4-2.4,10.2-4.9c2.1-1.9,4.1-3.8,5.9-5.5c1.1-1.1,2.9-3.6,5.3-7.4c7.5-11.9,12.1-27,14.6-41.1c0.1-0.4,0-0.7-0.3-1
				l-51.5-60.5c-0.3-0.3-0.7-0.4-1-0.1l-6.7,5c-0.4,0.3-0.7,0.2-1-0.2c-1.6-3-3.6-5.6-6.1-7.7c-0.4-0.4-0.6-0.8-0.6-1.3
				c-0.7-14.6-7.2-25.3-19.5-32.1c-4.1-2.2-8.5-3.5-12.8-4.9c-2.6-0.8-5.5-1.2-8.4-1.1c-0.2,0-0.4-0.2-0.4-0.4c0,0,0-0.1,0-0.1
				c4.1-12.6,5.5-25.6,4.2-39c0-0.4,0.1-0.5,0.5-0.3l13.8,6.6c0.2,0.1,0.5,0,0.6-0.2c0-0.1,0-0.1,0-0.2
				c-1.5-29.7-16.2-56.4-38.3-76.2c-0.8-0.7-1.1-1.4-1.1-2.4c0.5-13.8-0.1-27.8-1.7-42c-0.7-5.7-1.9-11.1-3.8-16.2
				c-1.3-3.6-4.9-9.2-9.4-8.5c-8.8,1.4-16.7,6.5-23.7,11.6c-9.2,6.8-17.9,14.1-26,22.1c-0.2,0.2-0.4,0.2-0.7,0.2
				c-32.5-8.4-65.1-8.4-97.7,0c-0.3,0.1-0.6,0-0.8-0.2c-8.5-8.2-17.4-15.7-26.7-22.6c-7-5.1-14.9-10.1-23.3-11.1
				c-1.5-0.2-2.8,0.2-4,1.2c-4.1,3.4-5.9,8.3-7,13.2c-1.6,6.9-2.6,14.4-3.1,22.6c-0.7,10.6-0.9,20.6-0.6,30c0,0.8-0.3,1.5-0.9,2
				c-19.1,17.1-32.6,39.1-37.1,63.9c-0.8,4.3-1.2,8.5-1.3,12.6c0,0.2,0.1,0.3,0.3,0.3c0,0,0.1,0,0.1,0l14-6.7c0.1-0.1,0.3,0,0.4,0.1
				c0,0.1,0,0.1,0,0.2c-1,10.4-0.4,20.7,1.9,31c0.6,2.7,1.5,5.2,2.2,7.8C465.7,278.7,465.5,279,465,278.9z"/>
			<path class="st1" d="M732.7,230.2l-18.8-16.5c-0.6-0.6-1.1-1.3-1.4-2.1c-1.1-3.4-1.9-7.3-3.2-10.4c-5.3-12.7-13.6-22.9-24.9-30.6
				c-0.2-0.2-0.3-0.4-0.2-0.6c4.9-17.4,8.2-34.9,9.9-52.7c0-0.3,0-0.7-0.2-1c-0.3-0.6-0.4-1.1-0.3-1.6c0.9-0.4,1.7,0.5,2.2,2.6
				c4.8,18.3,5.2,37,1.3,56.1c-0.2,0.8,0.1,1.4,0.7,1.9c17.9,14.2,30.9,32.9,36.9,55.2c0.3,1-0.1,1.3-1,0.9
				C733.5,231.2,733.2,230.9,732.7,230.2z"/>
			<path class="st1" d="M606.9,238.9l-0.8,0.8c-0.2,0.2-0.5,0.4-0.9,0.4l-10.3-0.2c-0.8,0-1.4-0.7-1.4-1.5c0-0.2,0-0.3,0.1-0.5
				c0.4-1.2,0.5-2.3,0.4-3.6c0.3-4,1.5-10.7,5-13.5c0.3-0.2,0.6-0.3,0.9-0.2c1.5,0.3,2.4,0.9,2.9,1.8
				C605.2,226.9,606.5,232.4,606.9,238.9z"/>
			<path class="st1" d="M538,222c-3.2,4.4-4.5,10.1-4.2,15.5c0.5,8.8,6.5,17.7,16.2,15.9c10.2-1.9,16.6-13.7,16.1-23.4
				c0-0.5,0.1-0.6,0.5-0.2c4.7,5.3,7.4,11.2,8.2,17.8c0.3,2.3,0.4,4.8-1.2,6.6c-18.4,21.7-52,10.4-53.5-17.9c-0.2-2.8,1.2-4.4,3-6.2
				c4-4.1,8.8-6.9,14.6-8.6c0.2,0,0.4,0.1,0.4,0.2C538.1,221.8,538.1,221.9,538,222z"/>
			<path class="st1" d="M664.8,244.1c2.7-7.7,1.8-15.1-2.7-22.2c-0.3-0.4-0.2-0.6,0.3-0.4c5.9,1.6,11.1,4.7,15.4,9.4
				c1.9,2.1,2.7,4.6,2.2,7.6c-1.5,10.1-6.2,17.6-14.1,22.5c-13.3,8.3-29.7,4.9-39.6-7c-1-1.1-1.3-2.5-1.2-4
				c0.4-7.6,3.2-14.3,8.4-20.2c0.3-0.3,0.4-0.3,0.4,0.2c-0.3,10,6,21.8,16.6,23.6C657,254.5,662.8,249.9,664.8,244.1z"/>
			<path class="st1" d="M714.8,223.2c1.8,5.1,3,9.2,3.6,12.4c3.5,17.4,1.4,34.4-6.2,51c-3.6-2.3-7.9-4-12.7-5.1
				c6.8-10.1,11.2-20.9,13.1-32.2l0.8-5.1c1.1-6.9,1.4-13.8,0.7-20.5c0-0.2,0.1-0.3,0.3-0.3c0,0,0.1,0,0.1,0
				C715.2,223.6,715.2,223.6,714.8,223.2z"/>
			
				<ellipse transform="matrix(1 -8.726535e-03 8.726535e-03 1 -1.9658 4.7276)" class="st1" cx="540.8" cy="227.6" rx="2.7" ry="3.2"/>
			
				<ellipse transform="matrix(0.9997 -2.443220e-02 2.443220e-02 0.9997 -5.3645 16.1782)" class="st1" cx="659.4" cy="227.6" rx="2.7" ry="3.2"/>
			<path class="st1" d="M646.3,299.6l10.5-0.8c0.4,0,0.5,0.1,0.3,0.5c-1.2,2-2.7,3.2-4.6,3.6c-3,0.7-5.9,1.4-8.8,2.3
				c-0.1,0-0.1,0.1-0.1,0.2l0.1,0.3c0,0.1,0.1,0.2,0.3,0.2l5.9-1c0.2,0,0.4,0.1,0.5,0.3c0,0.1,0,0.2,0,0.3c-0.1,0.2-0.2,0.3-0.4,0.4
				c-4.9,3-10.2,5.1-16,6.1c-4.6,0.8-8.6-0.6-13-1c-0.7-0.1-0.8-0.3-0.3-0.8c3.5-3.4,5-6.4,2.7-11.4c-1.8-3.8-5.6-4.2-9.2-4.6
				c-10.4-1.2-20.7-1.1-30.7,0.3c-2.1,0.3-4.6,1.1-5.9,2.9c-2.5,3.5-2.9,8.9,0.7,11.8c0.4,0.3,0.8,0.7,1.1,1.1
				c0.5,0.6,0.4,0.8-0.4,0.9c-4.4,0.2-8.4,1.8-12.9,1c-5.8-1-11-3-15.9-5.9c-1.9-1.1-1.7-1.5,0.4-1.2c1.2,0.2,2.5,0.4,3.7,0.7
				c2.5,0.5,2.6,0.3,0.2-0.8c-1.7-0.8-4-1.4-6-1.6c-2.4-0.2-4.4-1.4-5.9-3.7c-0.3-0.5-0.2-0.7,0.4-0.7l9,1l1.9,0.6
				c0.5,0.2,0.7,0,0.7-0.6v-0.5c0-0.3,0.1-0.6,0.4-0.8l2.8-2.1c0.2,0.3,0.7,0.4,1.6,0.4c7.4-2.5,14.2-6.4,20.6-11.8
				c11.1-9.4,16.9-22.7,13.9-37.2c-0.1-0.5,0.2-1,0.7-1.1c0.1,0,0.1,0,0.2,0l10.6,0c0.3,0,0.5,0.2,0.5,0.6c0,0,0,0.1,0,0.1
				c-2.6,14.2,2.1,27.5,13,36.9c6.1,5.3,12.9,9.4,20.3,12.2c1.3,0.5,2.4,0.5,3.7,0.8c1.4,0.3,2.2,1,2.3,2.2c0,0.3,0.2,0.5,0.5,0.5
				C647.2,300,647.3,299.9,646.3,299.6z"/>
			<path class="st1" d="M526.3,322.3c-6.6-5.6-11-13.1-13.3-22.3l21.3-1.5c0.8,0,1.5,0.3,1.9,1l0.9,1.5c0.4,0.7,0.2,1.1-0.6,1
				c-6.5-0.4-12.4,1.4-17.5,5.3c-1.3,1-1.2,1.3,0.4,0.9c6.5-1.7,12.8-2.9,18.9-3.7c0.6-0.1,1.3,0.2,1.7,0.6
				c4.3,5.1,9.4,9.1,15.1,12.1c0.2,0.1,0.3,0.4,0.2,0.6c-0.1,0.1-0.1,0.2-0.3,0.2C546.3,321.2,536.7,322.6,526.3,322.3z"/>
			<path class="st1" d="M686.8,300c-1.2,5.9-3.5,11.2-7,16c-1.8,2.4-3.6,4.5-5.3,6.2c-10.5,0.5-20.3-0.8-29.4-3.9
				c-0.7-0.2-0.7-0.5-0.1-0.9c6.3-3.6,11.3-7.7,15-12.3c0.2-0.3,0.5-0.4,0.9-0.5c1.5-0.1,3.1,0,4.6,0.3c5,1.1,10.2,2.3,15.6,3.8
				c0.2,0.1,0.5-0.1,0.5-0.3c0-0.2,0-0.3-0.1-0.4c-4.6-4-11.5-6.1-17.8-6.1c-1,0-1.2-0.4-0.6-1.2l0.7-1c0.6-0.8,1.4-1.2,2.4-1.1
				L686.8,300z"/>
			<path class="st1" d="M498.6,330.4c-5.1,10.7-14.1,9.1-19.8,0.4c-0.2-0.3-0.5-0.3-0.8-0.2c-0.1,0.1-0.2,0.2-0.2,0.3
				c-0.9,2.5-1.4,5-1.2,7.6c0.1,2-0.5,3.9-1.7,5.7c-3.5,5.3-8.8,8.2-15.2,7.1c-5.7-1-11.6-5.2-11.5-11.5c0-0.2-0.1-0.3-0.3-0.3
				c-0.1,0-0.1,0-0.2,0.1c-2.9,2.4-3.9,5.4-2.8,8.9c0.1,0.4-0.1,0.8-0.5,0.9c0,0,0,0,0,0c-3.9,1.1-7.8,0.9-11.5-0.6
				c-0.1-0.2-0.1-0.3-0.2-0.5c-0.1-0.1-0.2-0.3-0.2-0.5c-0.4-8.9,4.1-19.4,9.3-26c16.9-21.7,45.5-16.2,57.1,7.2
				C498.9,329.4,498.8,329.9,498.6,330.4z"/>
			<path class="st1" d="M751.7,342.8c-0.4,0.7-0.5,1.2-0.5,1.5c-2.1,3.1-4.7,5.1-7.9,6.2c-6.8,2.3-12.4,0.7-16.9-4.6
				c-2.3-2.7-3.3-5.9-3-9.6c0.1-1.9-0.2-3.7-1.1-5.4c-0.2-0.3-0.4-0.4-0.7-0.3c-0.4,0.1-0.6,0.4-0.6,0.9c-2.2,3.2-4.8,5.4-7.8,6.4
				c-2.7,0.5-5,0.1-7-1.5c-1.9-1.4-5.6-5.4-4.3-8.1c11.1-22.8,39.6-27.3,56-7c5.9,7.3,9.2,16,10,26.1c0.1,0.8-0.3,1.3-1,1.6
				c-3.4,1.3-7.1,1.4-11.1,0.5c-0.3-0.1-0.5-0.4-0.4-0.7c0,0,0,0,0,0c1.2-3.5,0.3-6.6-2.8-9.1c-0.3-0.2-0.5-0.2-0.6,0.2
				C751.8,340.7,751.7,341.7,751.7,342.8z"/>
		</g>
		<g>
			<path class="st2" d="M693.7,114.7c-0.1,0.5,0,1,0.3,1.6c0.1,0.3,0.2,0.6,0.2,1c-1.7,17.7-5,35.3-9.9,52.7c-0.1,0.3,0,0.5,0.2,0.6
				c11.3,7.7,19.6,17.9,24.9,30.6c1.3,3.1,2,7,3.2,10.4c0.3,0.8,0.7,1.5,1.4,2.1l18.8,16.5c-0.7,0.2-1.4,0.2-2.1-0.1
				c-5-2.2-10.3-4.5-15.8-6.9c0.4,0.3,0.3,0.4-0.3,0.2c-0.2-0.1-0.3,0-0.4,0.2c0,0,0,0.1,0,0.1c0.7,6.8,0.5,13.6-0.7,20.5l-14.6-2.8
				c-0.4-0.1-0.8-0.4-0.8-0.9c-1.3-14.5-7.7-25.9-19.1-34.3c-10.4-7.6-24.2-10.4-36.7-7.4c-13.5,3.2-23.7,11-30.4,23.4
				c-3,5.4-4.6,11.7-5,18.8c0.1-1.2,0.1-2,0-2.1c-0.3-6.6-1.7-12.1-4.1-16.5c-0.5-0.9-1.4-1.4-2.9-1.7c-0.3-0.1-0.6,0-0.9,0.2
				c-3,2.4-4.4,7.8-4.9,11.8c-0.2,1.3-0.3,2.7-0.6,4l-0.4,2.4c-3.5-22.3-23.3-41.9-45.8-41.5c-6.3,0.1-11.6,1.1-16.1,3.1
				c-17.5,7.5-27.2,20.8-29.2,39.7c0,0.5-0.4,0.9-0.9,1l-14.3,2.8c-0.9-4.9-1.4-10-1.3-15.2c0-1.3-0.5-2.4-0.8-3.7
				c0.3-0.5,0.5-1,0.6-1.5c0-0.3-0.2-0.5-0.5-0.5c-0.1,0-0.2,0-0.2,0l-18.8,8.4c-0.2,0.1-0.4,0-0.5-0.2c0,0,0,0,0-0.1
				c-0.1-0.3,0-0.6,0.1-1.1c0.9,0,1.7-0.2,2.4-0.8c6-5.3,12.1-10.6,18.2-15.7c0.9-0.8,1.6-1.7,1.9-2.9c4-17.1,13.3-30.5,27.8-40.5
				c0.2-0.2,0.3-0.5,0.3-0.7c-4.7-16.7-8-33.6-9.9-50.9c-0.1-1.1-0.6-2-1.3-2.6c0-0.8,0.1-1.3,0.3-1.5c0.5-0.7,1.1-0.8,1.8-0.2
				c13.5,10.9,23.1,24.4,28.6,40.5c0.1,0.2,0,0.4-0.1,0.6l-8.9,13.4c-0.5,0.8-0.4,0.9,0.4,0.4c1.5-1.1,2.9-2.4,4.4-3.4
				c13.8-9.4,29.1-15.4,45.7-17.8c0.4-0.1,0.8,0.2,0.8,0.6c0,0,0,0.1,0,0.1l0,54.6c0,0.2,0.2,0.4,0.4,0.4c0.1,0,0.2,0,0.2-0.1
				l21.4-15.8c0.3-0.2,0.6-0.2,0.8,0l21.7,16c0.1,0.1,0.2,0.1,0.3,0c0,0,0-0.1,0-0.1l0-55c0-0.4,0.3-0.7,0.7-0.7c0,0,0.1,0,0.1,0
				c5.6,0.9,11.1,2.1,16.4,3.7c12.2,3.6,23.5,9.5,34,17.8c0.5,0.4,0.6,0.4,0.2-0.2c-2.9-4.4-5.7-8.6-8.4-12.7
				c-0.6-0.8-0.7-1.6-0.4-2.5c4.5-13,11.9-24.5,22.1-34.4C689.1,118,691.3,116.3,693.7,114.7z"/>
			<path class="st2" d="M588.4,243.3c0,22.4-18.2,40.6-40.6,40.6h0c-22.4,0-40.6-18.2-40.6-40.6s18.2-40.6,40.6-40.6
				C570.2,202.7,588.4,220.9,588.4,243.3C588.4,243.3,588.4,243.3,588.4,243.3z M560.7,269c7.2-2.2,14.7-7.4,18.8-14.2
				c0.6-1,0.9-2.1,0.8-3.4c-0.5-13.2-5.7-23.1-15.6-29.8c-16.2-11-38-6.8-49.1,9.6c-0.5,0.8-0.8,1.7-0.8,2.8
				c0,11.3,3.9,20.4,11.6,27.5C535.7,270.1,548.3,272.8,560.7,269z"/>
			<path class="st2" d="M693,243.3c0,22.4-18.2,40.6-40.6,40.6l0,0c-22.4,0-40.6-18.2-40.6-40.6c0,0,0,0,0,0
				c0-22.4,18.2-40.6,40.6-40.6h0C674.8,202.7,693,220.9,693,243.3z M620.9,255.1c1.5,2.6,3.2,4.6,5,6.1c1.6,1.3,3.2,2.5,4.8,3.6
				c1.7,1.2,3.4,2.1,5,2.8c11.8,4.9,22.8,4.2,33-2.2c10.7-6.7,16.3-16.8,16.8-30.4c0-1.2-0.4-3.2-1-4.1
				c-20.9-29-64.9-14.1-64.3,21.3C620.1,253.2,620.3,254.2,620.9,255.1z"/>
			<path class="st2" d="M521.6,280.9c-3.1,0.2-6,0-8.8-0.6c-1.9-0.4-5.9,0.1-12.2,1.3c-6.7-9.9-11-20.6-13-32.3l13.8-2.7
				c0.6-0.1,0.9,0.1,1,0.7C503.8,261.3,510.2,272.5,521.6,280.9z"/>
			<path class="st2" d="M712.7,249.3c-2,11.3-6.4,22.1-13.1,32.2c-5.2-1-9.6-1.4-13.2-1.1c-3.8,0.3-6.4,0.5-7.8,0.4
				c11.4-8.4,17.9-19.7,19.5-33.8c0-0.3,0.2-0.5,0.6-0.4L712.7,249.3z"/>
			<path class="st2" d="M751.7,342.8c0-1.1,0.1-2.1,0.4-3c0.1-0.4,0.3-0.4,0.6-0.2c3,2.5,4,5.5,2.8,9.1c-0.1,0.3,0.1,0.6,0.4,0.7
				c0,0,0,0,0,0c4,1,7.6,0.8,11.1-0.5c0.7-0.3,1.1-0.8,1-1.6c-0.8-10.2-4.1-18.9-10-26.1c-16.4-20.3-44.9-15.8-56,7
				c-1.3,2.7,2.4,6.7,4.3,8.1c2,1.5,4.4,2,7,1.5c-0.3,1.1-1.3,1.6-3,1.5c-1-0.1-1.9-0.4-2.9-0.9c-8-4.4-10-14-5.6-21.9
				c6.1-11.1,15.6-21.6,27.7-24.9c4.1-1.1,7.8-1.4,11-0.8c16.6,3.1,25.2,17.5,27.3,33.2c0.3,2.1,1.5,3,2.8,4.4
				c6.9,7.1,5,16.3-2.7,21.5c-0.3,0.2-0.6,0.3-0.9,0.2c-0.9,0-1.6,0.2-2.3,0.7c-0.3,0.2-0.6,0.3-0.9,0.3l-7.9,0
				c-1.1,0-1.9-0.9-1.9-2c0-0.3,0.1-0.5,0.2-0.8c0.9-1.9,0.7-3.8-0.3-5.8C753.3,341.8,752.6,341.9,751.7,342.8z"/>
			<path class="st2" d="M467.7,291.1c6.1,1.1,11.5,3.7,16.4,7.9c6.2,5.3,11.1,11.5,14.7,18.8c2,4,2.3,8,0.9,12.1
				c-0.4,0.3-0.8,0.5-1.1,0.6c0.3-0.5,0.3-1,0.2-1.3c-11.6-23.4-40.1-28.9-57.1-7.2c-5.1,6.6-9.7,17.1-9.3,26c0,0.2,0.1,0.3,0.2,0.5
				c0.1,0.1,0.2,0.3,0.2,0.5l-1.6,0.3c-3.3-2.3-5.3-5.5-6-9.4c2.1-5,5.3-9.3,9.5-13c0.6-0.5,1.3-2,1.6-3c1.9-8.4,5.2-15.7,10-21.7
				C451.5,295.4,458.7,291.7,467.7,291.1z"/>
		</g>
		<g>
			<path class="st1" d="M593.9,234.4c0.1,1.2,0,2.4-0.4,3.6c-0.3,0.7,0.1,1.6,0.9,1.8c0.1,0.1,0.3,0.1,0.5,0.1l10.3,0.2
				c0.4,0,0.7-0.1,0.9-0.4l0.8-0.8c0.1,0.2,0.1,0.9,0,2.1l-12.5,0.3c-0.3,0-0.6-0.1-0.7-0.5c-0.6-1.5,0-2.7,0-4.3L593.9,234.4z"/>
			<path class="st1" d="M519,334l-2.3,0.2c-0.3,0-0.6,0.2-0.7,0.5c-4.1,10.1-13.7,18.8-23.5,24c-7.2,3.8-14.4,6.4-21.4,7.7
				c-8.3,1.5-14.4,2.3-18.3,2.3c-5.5,0-10.8-0.5-16-1.3c-2.2-0.4-4.8-1.1-7.7-2.2c-10.7-4.1-17.4-12.5-18.6-24.1
				c0-0.3,0-0.6,0.2-0.9l1.1-2.1c1.3,0.9,2.1,1.8,2.3,2.8c3.8,13,18.2,23.6,31.5,16.8c0.4-0.2,0.8-0.2,1.1,0
				c6.5,3.8,13,5.1,19.2,3.8c8.2-1.6,14.3-6.3,18.3-14c0.2-0.4,0.5-0.5,0.9-0.5c8,0.6,15.9-1.9,21.1-8c1.2-1.4,1.9-3,2.1-4.8
				c0-0.3,0.2-0.4,0.5-0.4L519,334z"/>
			<path class="st1" d="M788,338c0.5,1,1.2,1.8,1.1,3c-1,15.2-12.8,24.1-26.9,26.5c-6.2,1-11.7,1.4-16.6,1.1
				c-3.6-0.2-7.4-0.6-11.5-1.1c-2.9-0.4-5.6-0.9-8.2-1.6c-5.1-1.4-9.9-2.8-14.7-5c-12.6-5.8-22-14.8-28.1-27l7.3-0.1
				c0.3,0,0.6,0.2,0.7,0.5c2.9,9.4,14.2,13.2,23.4,12.7c0.4,0,0.7,0.1,0.9,0.5c4.3,8.1,10.7,12.8,19.2,14.1c6.1,1,12.3-0.3,18.3-3.9
				c0.3-0.2,0.6-0.2,1-0.1c1,0.4,2.1,0.8,3.1,1.2c4.1,1.6,9.3,1,13.2-0.7c7.9-3.4,13-9.3,15.5-17.6C785.9,339.8,786.7,339,788,338z"
				/>
			<path class="st1" d="M402.7,406c7.1,2.4,15.1,3.4,24.2,2.9c13.6-0.7,27.1-2.9,40.4-6.7c8-2.2,16.4-4.6,25.2-7.1
				c12.1-3.5,24.7-6.2,37.7-8.1c12.5-1.8,25.5-2.5,37.7,0.3c7.9,1.8,14.3,5.3,19.3,10.5c1.1,1.2,0.9,1.5-0.6,0.9
				c-1.3-0.5-2.7-0.8-4.1-1.1c-26.2-4.5-52.7-3.1-79.5,4.3c-12.4,3.4-25.3,6.9-38.6,10.6c-9.4,2.6-19.1,4.8-29.1,6.6
				c-0.1,0-0.2,0.1-0.2,0.2l0,0.3c0,0,0,0,0,0c3.8-0.1,7.5-0.3,11.1-0.6c26.8-2.6,51.5-7.9,79.4-13.7c14.8-3.1,30.7-3.6,44.8,0
				c6.9,1.8,14.6,5.5,19.2,11.1c1,1.2,0.8,1.4-0.5,0.6c-7.5-4.5-18-5.9-26.7-6.1c-14.4-0.4-29.2,1-44.4,4.1
				c-28,5.7-56.3,11.7-84.7,15.2c-7.4,0.9-14.3,1.4-20.7,1.3c-4.6,0-10.6-0.5-14.7-2.7c-3.8-2-7.2-4.8-10.1-8.5
				c-6-7.4-11.2-16.1-15.6-26c-0.1-0.1,0-0.3,0.1-0.3c0,0,0.1,0,0.1,0c30.5,5.9,62,2.5,92-6.8c18.8-5.8,33.7-10.3,44.6-13.3
				c7.6-2.1,15.6-3.9,23.9-5.2c18.9-3.1,41-2.6,53.8,13.7c0.7,0.9,0.5,1.1-0.5,0.7c-2.9-1.2-5.6-2.1-8.3-2.7
				c-20.2-4.1-39.4-3.6-57.8,1.7c-26,7.4-54.1,17.1-81.3,22.6c-6.4,1.3-12.7,2.2-18.8,2.5C414.5,407.5,408.8,407.1,402.7,406
				C402.4,405.9,402.4,405.9,402.7,406z"/>
			<path class="st1" d="M796.8,406c-5,1.1-10.2,1.6-15.7,1.3c-15.1-0.8-30.6-4.5-45.1-8.6c-16.2-4.6-32-9.3-47.7-14.2
				c-8-2.5-16.1-4.4-24.2-5.5c-17.6-2.5-34.5-1.1-50.7,4.2c-0.5,0.2-0.6,0-0.3-0.4c8.5-10.6,20.6-15,34.1-15.2
				c10-0.2,20,0.9,30.1,3.3c24.4,5.7,48.1,14.2,72.2,20.5c24.8,6.5,52.2,8,77.7,3c0.2,0,0.4,0.1,0.4,0.3c0,0.1,0,0.2,0,0.2
				c-4.1,9.4-9.1,17.8-15.2,25.4c-5.4,6.7-11.3,10.6-19.8,11.3c-5.1,0.4-10.1,0.4-15.1,0c-10.8-0.9-21.6-2.3-32.6-4.2
				c-19.8-3.5-40.8-7.6-63-12.1c-12.3-2.5-24.7-3.9-37-4.1c-10.5-0.2-24,0.5-33.2,5.6c-2.7,1.5-3,1.2-0.7-1
				c5.3-5.1,11.7-8.6,19.5-10.4c19.3-4.5,38.2-1.4,57.6,2.9c13.7,3.1,28.7,5.9,45.1,8.4c10.4,1.6,20.9,2.7,31.4,3.3
				c0,0,0.1,0,0.1-0.1l0-0.2c0-0.2-0.1-0.3-0.3-0.4c-22.9-4.5-44.8-10.9-67.2-17.2c-26.6-7.5-57.3-9.3-84.2-3.2
				c-1,0.2-1.2,0-0.4-0.8c4.9-4.9,10.5-8.3,17-10c8.6-2.3,18.2-3,28.8-2.2c21.8,1.8,43,7.4,64.2,13.6c19.6,5.8,39.9,10.4,60.4,9.4
				c4.9-0.3,9.6-1.2,14-2.7C797.5,405.8,797.5,405.8,796.8,406z"/>
		</g>
		<g>
			<path class="st1" d="M678.6,280.9c1.4,0.1,4-0.1,7.8-0.4c3.6-0.3,8,0,13.2,1.1c4.8,1.1,9.1,2.8,12.7,5.1
				c-6.2,6-11.7,12.7-16.4,20c-1.8,2.8-3.2,5.9-5.5,8.2c-1.9,1.9-3.9,3.7-6,5.2c-1.4,1-2.9,1.6-4.6,1.8c-1.9,0.2-3.6,0.3-5.2,0.2
				c1.8-1.7,3.5-3.8,5.3-6.2c3.5-4.8,5.9-10.1,7-16l3.2,0.3c2.7,0.2,2.8-0.2,0.3-1.2c-8-3.3-16.1-4.5-24.3-3.4
				c-0.5,0.1-0.9-0.2-1-0.7l-0.5-3.3c-0.1-0.6,0.2-0.9,0.7-0.9c7.4,0,14.1-0.2,20.1-0.6c0.3,0,0.6-0.1,0.8-0.3
				c0.2-0.1,0.3-0.4,0.1-0.5c-0.1-0.1-0.1-0.2-0.2-0.2c-14.5-4.3-31.1-0.5-44.4,6.2c-0.1,0.1-0.2,0.1-0.3,0.2
				c-0.1,0.1-0.1,0.2-0.1,0.2c0,0.2,0.1,0.2,0.2,0.2c6.6-1.9,13.2-3.5,19.7-4.8c1.3-0.2,1.6,0.2,0.9,1.3l-1.4,2.3
				c-0.6,1-1.7,1.7-2.9,1.7c-2.2,0.1-4.3,0.8-6.4,1.2c-1.5,0.3-3.3,0.9-5.2,1.7c1.1,0.3,0.9,0.4-0.5,0.2c-0.3,0-0.5-0.2-0.5-0.5
				c-0.1-1.2-0.8-2-2.3-2.2c-1.3-0.3-2.4-0.2-3.7-0.8c-7.4-2.8-14.1-6.9-20.3-12.2c-10.8-9.4-15.6-22.7-13-36.9
				c0-0.3-0.1-0.6-0.4-0.6c0,0-0.1,0-0.1,0l-10.6,0c-0.5,0-0.9,0.4-0.9,0.9c0,0.1,0,0.1,0,0.2c3,14.5-2.8,27.8-13.9,37.2
				c-6.4,5.4-13.3,9.3-20.6,11.8c-1.8-1.5-3.5-2.5-5-3.1c-7.2-2.8-15-4.7-23.7-5.9c-5.3-0.7-10.3-0.4-15.3,1c-3,0.8-3,1.3,0.2,1.5
				l19.3,1.1c0.1,0,0.2,0.1,0.2,0.2c0,0,0,0,0,0l-0.7,4c0,0.1-0.1,0.2-0.2,0.2c-8.1-0.9-15.9,0-23.6,2.8c-1.1,0.4-2,0.9-2.8,1.4
				c-0.6,0.4-0.5,0.6,0.2,0.5l4.8-0.4c2.2,9.2,6.7,16.6,13.3,22.3c-1.8,0.1-3.8-0.1-6.1-0.4c-1.8-0.2-3.3-0.8-4.4-1.7
				c-3.8-3-7.5-6-9.9-10.4c-4.1-7.6-9.4-14.4-16-20.5c-0.5-0.5-0.9-1-1.2-1.6c-0.3-0.5-0.6-1-0.8-1.4l12.7-4.8
				c6.2-1.2,10.3-1.7,12.2-1.3c2.8,0.6,5.8,0.8,8.8,0.6c7.3,4.8,15.1,7.5,23.7,8c6.6,0.4,12.9-0.5,18.6-2.7
				c13.4-5.1,23.3-15.8,27.7-29.5c1.1-3.5,1.2-7,2-10.5c0.1-0.6,0.6-1,1.2-1c2.7,0,5.4,0,8.1,0c1.1,0,1.9,0.3,2.9,0.5
				c0.6,0.1,1.1,0.6,1.2,1.3c0.3,3.8,1,7.5,2.2,11.1c5.1,15.8,19.2,27.4,34.7,30.4C656,290.6,667.6,288.1,678.6,280.9z"/>
			<path class="st1" d="M557.9,296.2l-2.8,2.1c-0.3,0.2-0.4,0.5-0.4,0.8v0.5c0,0.5-0.2,0.7-0.7,0.6l-1.9-0.6l0.5,0
				c0.6,0,0.6-0.1,0.1-0.4c-3.8-1.6-7.5-2.5-11.2-2.8c-1-0.1-1.8-0.6-2.3-1.4l-1.7-3c-0.3-0.6-0.2-0.8,0.5-0.7
				c3.5,0.6,7.2,1.2,11.2,1.9C552.3,293.9,555.2,294.8,557.9,296.2z"/>
			<path class="st1" d="M411.9,338l-1.1,2.1c-0.2,0.3-0.2,0.6-0.2,0.9c1.2,11.6,7.9,20,18.6,24.1c3,1.1,5.5,1.9,7.7,2.2
				c5.2,0.9,10.5,1.3,16,1.3c3.8,0,9.9-0.7,18.3-2.3c7-1.3,14.1-3.8,21.4-7.7c9.8-5.2,19.3-13.9,23.5-24c0.1-0.3,0.4-0.5,0.7-0.5
				l2.3-0.2c10.6,0,19.6-1.2,26.8-3.8c9.8-3.5,19.7-6.9,29.9-8.3c7.2-1,13.9-0.1,20.1,2.6c0.3,0.2,0.5,0.5,0.4,0.9l-8.5,31.5
				c-0.1,0.4-0.4,0.6-0.8,0.5c-3.2-0.8-6.3-1.3-9.4-1.7c-29.8-3.6-61.8,1.1-90.7,10.4c-4.3,1.4-12.1,4.1-23.5,8.2
				c-14.1,5.1-28.2,8.4-42.4,10.1c-13.9,1.6-29.8,0.9-42.1-5.8c-0.3-0.2-0.4-0.5-0.2-0.8c0,0,0,0,0-0.1l31.6-40.2
				c0.2-0.3,0.6-0.3,0.9-0.1c0,0,0.1,0,0.1,0.1L411.9,338z"/>
			<path class="st1" d="M683.1,333.9c6.1,12.2,15.5,21.2,28.1,27c4.9,2.2,9.6,3.7,14.7,5c2.6,0.7,5.3,1.2,8.2,1.6
				c4.1,0.5,7.9,0.9,11.5,1.1c4.9,0.3,10.4-0.1,16.6-1.1c14.1-2.3,25.8-11.2,26.9-26.5c0.1-1.2-0.6-2-1.1-3c0.6-0.9,1.1-1,1.5-0.5
				c10.6,13.4,21.1,26.8,31.7,40.2c0.2,0.2,0.1,0.6-0.1,0.8c0,0,0,0-0.1,0c-5.7,3.1-11.8,5-18.5,5.8c-26,3.1-52.5-4.9-76.5-13.8
				c-32.5-12-67.2-18.6-101.9-15.1c-4.1,0.4-7.9,1.1-11.4,2c-0.2,0.1-0.5-0.1-0.5-0.3l-8.5-31.4c-0.2-0.6,0.1-1.1,0.7-1.4
				c3.9-1.6,8-2.8,12.2-2.9c10.8-0.1,21.6,3.1,31.7,6.7C659.9,332.4,671,334.2,683.1,333.9z"/>
		</g>
		<g>
			<path class="st3" d="M504.7,116.4c0.8,0.6,1.2,1.5,1.3,2.6c1.9,17.3,5.2,34.2,9.9,50.9c0.1,0.3,0,0.6-0.3,0.7
				c-14.5,9.9-23.8,23.4-27.8,40.5c-0.3,1.1-1,2.1-1.9,2.9c-6.2,5.1-12.2,10.4-18.2,15.7c-0.7,0.6-1.5,0.7-2.4,0.8
				c0.2-2.2,0.6-3.9,1-5.3c6.8-19.8,18.4-36.3,34.8-49.4c1-0.8,1.4-2.2,1.1-4c-0.4-2.5-0.9-5.1-1.4-7.5c-0.4-2.2-0.6-4.7-0.6-7.6
				c0-6.1,0-12.2,0-18.2c0-1,0.2-2.4,0.5-4.3c0.2-1.2,0.4-2.7,0.5-4.4C501.5,126,502.7,121.6,504.7,116.4z"/>
			<path class="st3" d="M484.7,225.5c0.3,1.3,0.8,2.3,0.8,3.7c-0.1,5.2,0.3,10.2,1.3,15.2l0.7,5c2,11.7,6.4,22.4,13,32.3l-12.7,4.8
				c-3.7-7.1-6.1-14.7-7.3-22.7c-0.1-0.8-0.2-1.8-0.2-2.9c0.1-3.7-1.5-7-0.6-10.7c0.5-1.9,0.6-3.8,0.5-5.8
				c-0.3-4.6,1.2-9.4,2.4-13.9C483.2,228.6,483.9,227,484.7,225.5z"/>
			<path class="st3" d="M467.7,291.1c-9,0.7-16.1,4.3-21.4,10.9c-4.8,6-8.1,13.3-10,21.7c-0.2,1-1,2.5-1.6,3c-4.2,3.7-7.4,8-9.5,13
				c-0.8-4.1,0.3-7.8,3.4-10.9c1.5-1.5,2.8-2.4,3.2-4.8c3.1-17.6,11.2-31.3,29.8-33.9C463.9,289.9,465.6,290.6,467.7,291.1z"/>
			<path class="st3" d="M499.7,329.8c-0.8,2.9-2.3,5.1-4.4,6.8c-0.5,0.4-1.1,0.9-1.7,1.3c-0.6,0.5-1.2,0.8-1.9,1
				c-4.3,1.5-8.7-1.2-11.5-4.4c-1.7-1.9-2.5-1.6-2.6,0.9c-0.1,2.6,0.1,5.6-1,8c-2.9,6-7.7,9.1-14.6,9.3c-1.3,0-3-0.2-5.1-0.8
				c-4.3-1.2-7-3.5-9-7.6c-1.3-2.5-2.1-2.4-2.4,0.4c-0.1,1.1,0,2.3,0.5,3.6c0.4,1-0.2,2.2-1.2,2.5c-0.1,0.1-0.3,0.1-0.5,0.1
				c-4.5,0.4-9.2,1-13.1-2l1.6-0.3c3.7,1.6,7.6,1.8,11.5,0.6c0.4-0.1,0.6-0.5,0.5-0.9c0,0,0,0,0,0c-1.1-3.5-0.1-6.5,2.8-8.9
				c0.1-0.1,0.3-0.1,0.4,0c0,0.1,0.1,0.1,0.1,0.2c0,6.2,5.8,10.5,11.5,11.5c6.4,1.1,11.7-1.8,15.2-7.1c1.2-1.8,1.8-3.7,1.7-5.7
				c-0.1-2.6,0.3-5.1,1.2-7.6c0.1-0.3,0.4-0.5,0.7-0.3c0.1,0,0.2,0.1,0.3,0.2c5.7,8.8,14.6,10.4,19.8-0.4
				C498.9,330.3,499.3,330.1,499.7,329.8z"/>
			<path class="st3" d="M751.2,344.3c-0.5,2.9-1.9,4.9-4.1,6.1c-1.5,0.8-3.4,1.4-5.9,2c-8,1.7-15.3-2.6-18.3-9.9
				c-0.4-1-0.6-2.6-0.7-4.6c0-2.3-0.4-4.4-1.2-6.5c0-0.4,0.2-0.7,0.6-0.9c0.3-0.1,0.6,0,0.7,0.3c0.9,1.7,1.2,3.5,1.1,5.4
				c-0.3,3.7,0.7,6.9,3,9.6c4.5,5.3,10.1,6.8,16.9,4.6C746.5,349.4,749.1,347.4,751.2,344.3z"/>
		</g>
	</g>
	<g>
		<g>
			<path class="st0" d="M160.5,620.3l22.6-119.7h30.2l22.3,119.7h-24.4l-4-25.3h-17.6l-4.1,25.3H160.5z M192,579.2h12.7l-6.4-46.7
				L192,579.2z"/>
			<path class="st0" d="M274.2,621.8c-6.2,0-11.5-1.1-15.9-3.4c-4.4-2.3-7.8-5.5-10.1-9.8c-2.4-4.2-3.5-9.4-3.5-15.4v-31.3
				c0-6.1,1.2-11.3,3.5-15.5c2.4-4.2,5.7-7.5,10.1-9.7c4.4-2.2,9.7-3.3,15.9-3.3c6.1,0,11.3,0.9,15.6,2.8c4.3,1.9,7.6,4.7,9.8,8.5
				c2.3,3.8,3.4,8.6,3.4,14.4v9h-23.2v-9.8c0-2.3-0.2-4-0.7-5.2c-0.4-1.2-1.1-2.1-1.9-2.6c-0.8-0.5-1.8-0.7-3-0.7s-2.2,0.3-3,1
				c-0.8,0.6-1.4,1.7-1.8,3.1c-0.4,1.4-0.6,3.4-0.6,6v35.5c0,3.8,0.5,6.5,1.4,7.8c0.9,1.4,2.3,2.1,4.1,2.1c1.3,0,2.3-0.3,3.1-0.8
				c0.8-0.5,1.4-1.4,1.8-2.7c0.4-1.2,0.6-2.9,0.6-5v-11.4H303v10.3c0,5.7-1.2,10.5-3.5,14.4c-2.3,3.9-5.6,6.8-9.9,8.7
				C285.3,620.9,280.2,621.8,274.2,621.8z"/>
			<path class="st0" d="M330.8,621.8c-4.3,0-8-1-10.9-3.1c-3-2.1-5.2-4.7-6.7-7.9c-1.5-3.2-2.2-6.5-2.2-9.8c0-5.3,1.1-9.8,3.2-13.5
				c2.1-3.6,4.9-6.7,8.4-9.2c3.4-2.5,7.2-4.6,11.4-6.3c4.1-1.7,8.2-3.3,12.3-4.7v-8.6c0-1.5-0.1-2.8-0.4-3.9c-0.3-1.1-0.8-2-1.5-2.7
				c-0.7-0.6-1.7-1-3.1-1c-1.4,0-2.4,0.3-3.2,0.9c-0.7,0.6-1.3,1.4-1.6,2.4c-0.3,1-0.5,2.2-0.6,3.5l-0.6,6.2l-22.5-0.9
				c0.5-10.2,3.2-17.8,8.2-22.7c5-4.9,12.4-7.3,22.4-7.3c8.7,0,15.2,2.4,19.4,7.2c4.3,4.8,6.4,11,6.4,18.6V599
				c0,3.5,0.1,6.7,0.2,9.3c0.1,2.7,0.3,5,0.6,6.9c0.2,2,0.5,3.6,0.7,5h-21.6c-0.3-2.3-0.6-4.7-1-7.4c-0.4-2.7-0.7-4.2-0.9-4.7
				c-1,3.5-2.8,6.7-5.5,9.5C338.9,620.4,335.3,621.8,330.8,621.8z M339.4,605.6c1,0,1.9-0.2,2.7-0.6c0.8-0.4,1.6-0.9,2.3-1.6
				c0.7-0.7,1.3-1.4,1.8-2.1v-23.4c-2,1.2-3.8,2.4-5.5,3.6c-1.7,1.2-3.1,2.6-4.3,4.1c-1.2,1.5-2.1,3.1-2.7,4.8c-0.6,1.7-1,3.7-1,5.8
				c0,2.9,0.6,5.1,1.8,6.8C335.7,604.7,337.3,605.6,339.4,605.6z"/>
			<path class="st0" d="M402,621.8c-6.3,0-11.2-2.2-14.6-6.7c-3.5-4.4-5.2-11-5.2-19.7v-35.3c0-5.3,0.7-10,2.2-14
				c1.5-4,3.7-7.1,6.7-9.4c3-2.3,6.6-3.4,10.9-3.4c3.2,0,6.2,0.6,9,1.8c2.9,1.2,5.5,2.9,7.8,5v-39.6H443v119.7h-24.1v-6.7
				c-2.7,2.6-5.4,4.6-8.3,6C407.8,621.1,404.9,621.8,402,621.8z M412.5,606.4c0.8,0,1.7-0.2,2.9-0.6c1.1-0.4,2.3-0.9,3.5-1.6v-54
				c-1-0.5-2-0.9-3.1-1.3c-1.1-0.4-2.1-0.6-3.1-0.6c-2.2,0-3.7,0.9-4.7,2.7c-1,1.8-1.5,4-1.5,6.6V597c0,1.8,0.2,3.4,0.6,4.8
				c0.4,1.4,1,2.6,1.9,3.4C409.9,606,411.1,606.4,412.5,606.4z"/>
			<path class="st0" d="M485.9,621.8c-6.2,0-11.5-1.1-16-3.3c-4.4-2.2-7.8-5.5-10.2-9.8c-2.4-4.3-3.5-9.4-3.5-15.4v-31.3
				c0-6.1,1.2-11.3,3.5-15.5c2.4-4.2,5.8-7.5,10.3-9.7c4.5-2.2,9.8-3.3,15.9-3.3c6.3,0,11.6,1.1,15.7,3.3c4.2,2.2,7.3,5.4,9.5,9.6
				c2.1,4.2,3.2,9.5,3.2,15.7v17.1H480v16.4c0,2.2,0.2,3.9,0.7,5.3c0.5,1.4,1.2,2.4,2.1,3c0.9,0.6,1.9,0.9,3.1,0.9
				c1.2,0,2.2-0.3,3.2-0.8c0.9-0.5,1.7-1.4,2.2-2.6c0.5-1.2,0.8-2.8,0.8-4.9v-9h22.2v8.3c0,8.7-2.5,15.2-7.5,19.6
				C501.7,619.6,494.7,621.8,485.9,621.8z M480,567.9h12.1v-8.6c0-2.3-0.3-4-0.8-5.3c-0.5-1.3-1.3-2.2-2.2-2.7
				c-0.9-0.5-2-0.7-3.3-0.7c-1.2,0-2.2,0.3-3,0.9c-0.8,0.6-1.5,1.6-2,3c-0.5,1.4-0.7,3.5-0.7,6.1V567.9z"/>
			<path class="st0" d="M527.4,620.3v-85.5h23.7v6.8c3.2-3.1,6.4-5.2,9.8-6.5c3.4-1.3,6.9-1.9,10.4-1.9c3.4,0,6.4,0.9,8.9,2.6
				c2.5,1.7,4.4,4.3,5.7,7.6c3.3-3.7,6.9-6.4,10.6-7.9c3.7-1.5,7.4-2.3,11.2-2.3c3.3,0,6.3,0.8,8.7,2.4c2.5,1.6,4.4,4,5.8,7.1
				c1.4,3.1,2.1,6.8,2.1,11.2v66.4h-23.7v-63.9c0-2.4-0.4-4.1-1.3-5.1c-0.8-1-2.1-1.6-3.8-1.6c-1,0-2.2,0.3-3.7,0.8
				c-1.5,0.5-2.9,1.3-4.3,2.3c0,0.2,0,0.4,0,0.5c0,0.1,0,0.3,0,0.5v66.4h-23.4v-63.9c0-2.4-0.4-4.1-1.3-5.1s-2.2-1.6-3.8-1.6
				c-1.1,0-2.3,0.3-3.8,0.8c-1.4,0.5-2.8,1.3-4.2,2.3v67.4H527.4z"/>
			<path class="st0" d="M666.7,621.8c-6.2,0-11.5-1.1-16-3.3c-4.4-2.2-7.8-5.5-10.2-9.8c-2.4-4.3-3.5-9.4-3.5-15.4v-31.3
				c0-6.1,1.2-11.3,3.5-15.5c2.4-4.2,5.8-7.5,10.3-9.7c4.5-2.2,9.8-3.3,15.9-3.3c6.3,0,11.6,1.1,15.7,3.3c4.2,2.2,7.3,5.4,9.5,9.6
				c2.1,4.2,3.2,9.5,3.2,15.7v17.1h-34.3v16.4c0,2.2,0.2,3.9,0.7,5.3c0.5,1.4,1.2,2.4,2.1,3c0.9,0.6,1.9,0.9,3.1,0.9
				s2.2-0.3,3.2-0.8c0.9-0.5,1.7-1.4,2.2-2.6c0.5-1.2,0.8-2.8,0.8-4.9v-9h22.2v8.3c0,8.7-2.5,15.2-7.5,19.6
				C682.5,619.6,675.5,621.8,666.7,621.8z M660.8,567.9h12.1v-8.6c0-2.3-0.3-4-0.8-5.3c-0.5-1.3-1.3-2.2-2.2-2.7
				c-0.9-0.5-2-0.7-3.3-0.7c-1.2,0-2.2,0.3-3,0.9c-0.8,0.6-1.5,1.6-2,3c-0.5,1.4-0.7,3.5-0.7,6.1V567.9z"/>
			<path class="st0" d="M757,620.3l-14.5-119.7H765l7.1,69.8l9-69.6h17.6l9.5,69.2l7.2-69.3h22.2l-14.3,119.7h-23.1L790,548
				l-9.6,72.3H757z"/>
			<path class="st0" d="M877.2,621.8c-6.1,0-11.4-1-15.9-3.1c-4.5-2.1-7.9-5.2-10.3-9.3c-2.4-4.1-3.6-9.3-3.6-15.5v-32.5
				c0-6.2,1.2-11.4,3.6-15.5c2.4-4.1,5.9-7.2,10.3-9.3c4.5-2.1,9.8-3.1,15.9-3.1c6.1,0,11.4,1,15.9,3.1c4.5,2.1,8,5.2,10.4,9.3
				c2.5,4.1,3.7,9.3,3.7,15.5v32.5c0,6.2-1.2,11.4-3.7,15.5c-2.5,4.1-5.9,7.2-10.4,9.3C888.6,620.8,883.3,621.8,877.2,621.8z
				 M877.3,605.8c1.6,0,2.8-0.4,3.7-1.3c0.9-0.8,1.5-2,1.8-3.5c0.3-1.5,0.5-3.4,0.5-5.5v-35.8c0-2.2-0.2-4-0.5-5.5
				c-0.3-1.5-1-2.7-1.8-3.5c-0.9-0.8-2.1-1.3-3.7-1.3c-1.6,0-2.8,0.4-3.7,1.3c-0.9,0.8-1.5,2-1.9,3.5c-0.4,1.5-0.6,3.4-0.6,5.5v35.8
				c0,2.2,0.2,4,0.6,5.5c0.4,1.5,1,2.7,1.9,3.5C874.5,605.4,875.8,605.8,877.3,605.8z"/>
			<path class="st0" d="M920.8,620.3v-85.5h24.1v14.2c2.8-4.9,5.5-8.7,8.3-11.3c2.8-2.6,6.1-3.9,10.1-3.9c0.8,0,1.5,0,2.1,0.1
				c0.6,0.1,1.1,0.2,1.6,0.4v24c-1.1-0.5-2.3-0.9-3.6-1.3c-1.3-0.3-2.7-0.5-4.2-0.5c-2.8,0-5.3,0.7-7.7,2.2
				c-2.4,1.5-4.5,3.5-6.5,6.1v55.6H920.8z"/>
			<path class="st0" d="M977.1,620.3V500.6h23.2V567l17.4-32.1h26.8l-20.5,35l20.4,50.4h-26l-12.7-40.7l-5.3,8.1v32.5H977.1z"/>
		</g>
	</g>
	<g>
		<text transform="matrix(1 0 0 1 224.0857 704.8927)" class="st0 st4 st5">Master the Knowledge</text>
	</g>
</g>
</svg>
